<?xml version="1.0" encoding="UTF-8"?>
<svg version="1.1" xmlns="http://www.w3.org/2000/svg" width="1768" height="768">
<path d="M0 0 C2.03351787 1.92477199 4.04802123 3.86767817 6.0625 5.8125 C7.04283203 6.69808594 7.04283203 6.69808594 8.04296875 7.6015625 C34.37745752 31.99693214 47.40164299 72.09216144 51.0625 106.8125 C51.17464844 107.81925781 51.28679687 108.82601562 51.40234375 109.86328125 C56.05012253 158.9514654 45.24394524 209.82034183 13.60473633 248.43994141 C-8.83974792 274.94672548 -39.35909036 291.81426007 -72.9375 299.8125 C-74.16597656 300.10898437 -75.39445312 300.40546875 -76.66015625 300.7109375 C-96.46980948 305.06518119 -116.56476187 305.08324179 -136.75 304.9375 C-139.20767859 304.92743752 -141.66536123 304.91831752 -144.12304688 304.91015625 C-150.06128832 304.88843076 -155.99937433 304.85521859 -161.9375 304.8125 C-163.24668922 296.44200296 -164.55095862 288.07076027 -165.84901428 279.6985302 C-166.45195432 275.81068529 -167.05656351 271.92311554 -167.66503906 268.03613281 C-168.25256606 264.28256366 -168.83564076 260.52832717 -169.41567993 256.7735939 C-169.63736686 255.3436854 -169.86063678 253.91402136 -170.08554077 252.48461533 C-170.40110463 250.47722092 -170.71043884 248.46885025 -171.01953125 246.46044922 C-171.19718018 245.31905487 -171.3748291 244.17766052 -171.55786133 243.00167847 C-172.51915515 234.92626944 -172.51915515 234.92626944 -170.62091064 231.29145813 C-167.7837445 227.88884579 -165.53307449 225.27198595 -161.18591309 224.02011108 C-157.95953269 223.74113511 -154.845986 223.74826702 -151.609375 223.85546875 C-150.42514954 223.85549393 -149.24092407 223.8555191 -148.02081299 223.85554504 C-144.24137403 223.86142665 -140.46618514 223.92681273 -136.6875 224 C-131.74469974 224.06202604 -126.80255576 224.09705388 -121.859375 224.10546875 C-120.66247543 224.10768433 -119.46557587 224.1098999 -118.23240662 224.11218262 C-92.03027454 223.88970223 -68.8977068 215.00620889 -49.75 197 C-30.54717278 177.14033564 -27.33291839 150.00509891 -27.66015625 123.7734375 C-28.11858854 100.0174899 -36.00266029 77.9440602 -53.09667969 61.04589844 C-71.26575352 44.07082449 -95.28453621 40.89789836 -119.13085938 41.66455078 C-134.24946273 42.46151265 -148.78767458 47.85999706 -160.9375 56.8125 C-159.9475 61.2675 -159.9475 61.2675 -158.9375 65.8125 C-159.84371094 66.225 -160.74992187 66.6375 -161.68359375 67.0625 C-171.47303943 71.64293223 -180.17023526 76.12592079 -184.8125 86.4375 C-188.77696076 97.67991668 -190.38588622 108.55451372 -190.28239441 120.43881226 C-190.28339671 121.73553222 -190.28439901 123.03225219 -190.28543168 124.3682667 C-190.28791724 127.92420608 -190.2720355 131.47985105 -190.25296748 135.03573108 C-190.23574597 138.88705977 -190.23626736 142.738391 -190.23486328 146.5897522 C-190.23039538 153.24991022 -190.21591938 159.90998364 -190.195364 166.57011032 C-190.16364808 177.10019432 -190.16201137 187.63018572 -190.16487122 198.16030884 C-190.16547071 201.7694683 -190.16585246 205.37862775 -190.16615009 208.98778725 C-190.16622901 209.88944449 -190.16630792 210.79110173 -190.16638922 211.72008192 C-190.16681963 221.95971345 -190.16050371 232.19933752 -190.15161133 242.43896484 C-190.15040477 243.84149299 -190.15040477 243.84149299 -190.14917383 245.27235503 C-190.13543031 260.44950743 -190.10219191 275.62657485 -190.06448957 290.80368368 C-190.02648556 306.40742301 -190.01914268 322.01098868 -190.03777009 337.6147629 C-190.04808247 347.22953924 -190.03305226 356.84360993 -189.98532418 366.45827647 C-189.95472469 373.04141362 -189.95307577 379.62415486 -189.97419836 386.20732777 C-189.9854559 390.00420377 -189.98366735 393.79990166 -189.94685555 397.59664154 C-189.90723084 401.71463559 -189.92953018 405.83000207 -189.95768738 409.9480896 C-189.93622924 411.14477685 -189.91477109 412.34146411 -189.8926627 413.57441461 C-189.98845428 419.61834591 -190.51067338 423.10620076 -194.79249287 427.55303383 C-198.27570729 430.63180539 -200.75145776 431.8195899 -205.50195312 431.84765625 C-206.73683472 431.87287354 -207.97171631 431.89809082 -209.24401855 431.92407227 C-210.55567993 431.90787842 -211.86734131 431.89168457 -213.21875 431.875 C-214.6006377 431.88040053 -215.98251795 431.88817424 -217.36437988 431.89819336 C-220.24968375 431.909936 -223.13299575 431.89302535 -226.01806641 431.85546875 C-229.69779227 431.80987544 -233.37285136 431.83614961 -237.05240631 431.88404846 C-239.90279661 431.91310321 -242.75209885 431.90369298 -245.6025238 431.88302612 C-247.61204092 431.87517277 -249.62160212 431.89926435 -251.63098145 431.92407227 C-253.48330383 431.88624634 -253.48330383 431.88624634 -255.37304688 431.84765625 C-256.98898743 431.83810913 -256.98898743 431.83810913 -258.63757324 431.82836914 C-263.91849605 430.20265836 -267.0511579 427.54235135 -269.9375 422.8125 C-271.14503187 416.86075981 -271.0189813 410.98673303 -270.95336914 404.93444824 C-270.96259047 403.08943956 -270.97529857 401.24444557 -270.9911871 399.39948225 C-271.02457735 394.33609775 -271.00808155 389.27391977 -270.98329735 384.210531 C-270.96520161 378.74753513 -270.99313301 373.2847472 -271.01513672 367.8217926 C-271.05072244 357.12251251 -271.04302071 346.4236812 -271.01983559 335.72438347 C-271.00177337 327.02942922 -270.99931611 318.3346008 -271.00802612 309.63963318 C-271.00925199 308.40244041 -271.01047785 307.16524764 -271.01174086 305.89056417 C-271.01429865 303.37728326 -271.01689235 300.86400238 -271.01952159 298.35072154 C-271.04168714 275.45194327 -271.01869505 252.55336122 -270.97678082 229.65462898 C-270.93881632 208.75481034 -270.94221337 187.85538165 -270.98046875 166.95556641 C-271.0233144 143.46952596 -271.04014033 119.98365717 -271.01557064 96.49757624 C-271.01302223 93.99350647 -271.01050726 91.48943666 -271.00802612 88.98536682 C-271.00679192 87.75329513 -271.00555771 86.52122344 -271.00428611 85.25181624 C-270.99737675 76.56662288 -271.00904199 67.88156782 -271.02786255 59.19639587 C-271.0502924 48.61292379 -271.04424452 38.02992641 -271.0016166 27.44650877 C-270.98058117 22.0458357 -270.97237471 16.64595427 -270.99880981 11.24528694 C-271.02264256 6.30153645 -271.00956298 1.35931152 -270.9669894 -3.58430046 C-270.95805014 -5.37287098 -270.9626069 -7.16157028 -270.9819957 -8.95005804 C-271.13239185 -23.97520648 -271.13239185 -23.97520648 -266.0802536 -29.24138641 C-262.61174779 -32.08282958 -259.93370151 -33.1957115 -255.37304688 -33.22265625 C-254.13816528 -33.24787354 -252.90328369 -33.27309082 -251.63098145 -33.29907227 C-250.31932007 -33.28287842 -249.00765869 -33.26668457 -247.65625 -33.25 C-246.2743623 -33.25540053 -244.89248205 -33.26317424 -243.51062012 -33.27319336 C-240.62531625 -33.284936 -237.74200425 -33.26802535 -234.85693359 -33.23046875 C-231.17720773 -33.18487544 -227.50214864 -33.21114961 -223.82259369 -33.25904846 C-220.97220339 -33.28810321 -218.12290115 -33.27869298 -215.2724762 -33.25802612 C-213.26295908 -33.25017277 -211.25339788 -33.27426435 -209.24401855 -33.29907227 C-202.88610363 -33.16923848 -198.80721466 -32.8613294 -194.09375 -28.34765625 C-191.63850984 -25.54199468 -190.96251135 -24.30355268 -190.15625 -20.5625 C-190.2490625 -19.44875 -190.341875 -18.335 -190.4375 -17.1875 C-190.5096875 -16.053125 -190.581875 -14.91875 -190.65625 -13.75 C-190.7490625 -12.904375 -190.841875 -12.05875 -190.9375 -11.1875 C-189.7 -12.13109375 -189.7 -12.13109375 -188.4375 -13.09375 C-133.46597752 -54.18520515 -49.70779642 -45.91761263 0 0 Z " fill="#F15224" transform="translate(1379.9375,247.1875)"/>
<path d="M0 0 C1.21486084 -0.02521729 2.42972168 -0.05043457 3.68139648 -0.07641602 C5.61607788 -0.05212524 5.61607788 -0.05212524 7.58984375 -0.02734375 C8.94931139 -0.03274457 10.30877144 -0.04051854 11.66821289 -0.05053711 C14.50645072 -0.06227846 17.34266339 -0.04537389 20.18066406 -0.0078125 C23.7998827 0.03778139 27.41435661 0.01150642 31.03340149 -0.03639221 C33.83747434 -0.06545089 36.64044144 -0.05603509 39.44454956 -0.03536987 C41.42082848 -0.02751861 43.39715225 -0.05160473 45.37329102 -0.07641602 C46.58815186 -0.05119873 47.8030127 -0.02598145 49.0546875 0 C50.64398071 0.00954712 50.64398071 0.00954712 52.26538086 0.01928711 C57.37029124 1.60910315 60.52231074 4.64660444 63.52734375 9.03515625 C64.65852948 13.30706886 64.58660858 17.41732303 64.50715637 21.81690979 C64.52035975 23.73464082 64.52035975 23.73464082 64.53382987 25.69111389 C64.55714319 29.2248469 64.53093596 32.75671738 64.49643457 36.29029429 C64.46797194 40.10715379 64.48589828 43.92383156 64.49822998 47.74073792 C64.51340359 54.35205146 64.49973057 60.96279637 64.46668434 67.57403755 C64.41913475 77.14895391 64.41874428 86.72342914 64.43025156 96.29843568 C64.4479519 111.85570513 64.43221648 127.41274616 64.39331055 142.9699707 C64.35572879 158.04256237 64.32629046 173.11510935 64.31323242 188.18774414 C64.31242142 189.11507792 64.31161042 190.04241169 64.31077484 190.99784649 C64.30228974 201.13511295 64.29780054 211.2723741 64.29869366 221.40964413 C64.29880481 222.74865195 64.29880481 222.74865195 64.29891821 224.11471043 C64.29928568 227.68484301 64.29972349 231.25497545 64.30069944 234.82510792 C64.30348956 245.25122069 64.29393189 255.67713981 64.26151773 266.10320561 C64.2415383 272.65082431 64.2315168 279.198407 64.22911499 285.74605561 C64.22725492 289.51706802 64.22040037 293.2878993 64.20001793 297.05886078 C64.10197104 315.87827817 64.03980674 332.80429344 72.52734375 350.03515625 C73.00816406 351.02128906 73.48898438 352.00742187 73.984375 353.0234375 C83.43023241 370.74303863 99.65774471 381.38814519 118.46435547 387.43798828 C140.53973414 393.82809198 166.62015071 391.88988075 187.03833008 381.23583984 C206.77438421 370.31823509 217.75700377 353.26569429 223.9609375 332.07666016 C231.52806268 304.80239257 228.38164934 273.38393156 214.53564453 248.74609375 C212.22435868 244.82418303 209.58889383 241.39400561 206.52734375 238.03515625 C205.8003125 237.21660156 205.07328125 236.39804687 204.32421875 235.5546875 C189.01950377 219.23788653 166.57954694 210.83450367 144.52734375 209.03515625 C140.4220383 208.94014275 136.32070638 208.99272376 132.21484375 209.03515625 C129.81640618 209.03631404 127.41796627 209.03493472 125.01953125 209.03125 C121.26631457 209.0268252 117.5155974 209.03531622 113.76269531 209.08642578 C110.12050461 209.1317504 106.48217141 209.11975989 102.83984375 209.09765625 C101.72504639 209.12537109 100.61024902 209.15308594 99.46166992 209.18164062 C93.53611422 209.09111193 90.02468511 208.35510189 85.70947266 204.12768555 C83.08260808 200.66349347 82.04168705 198.33168352 82.27490234 193.97973633 C82.5710546 192.14258079 82.91577723 190.31279689 83.30078125 188.4921875 C83.47088715 187.49943314 83.64099304 186.50667877 83.81625366 185.48384094 C84.17595523 183.38741706 84.55327531 181.29394849 84.94714355 179.20367432 C85.69941179 175.09547938 86.29234595 170.97205487 86.88165283 166.83786011 C87.45796944 162.80667796 88.07423908 158.78198964 88.68945312 154.7565918 C89.16319683 151.65152165 89.63054828 148.54552772 90.09765625 145.43945312 C90.3993625 143.45436973 90.70143104 141.46934137 91.00390625 139.484375 C91.21172226 138.09879646 91.21172226 138.09879646 91.42373657 136.68522644 C91.55412323 135.83865982 91.68450989 134.9920932 91.81884766 134.11987305 C91.93193268 133.37650192 92.0450177 132.6331308 92.16152954 131.86723328 C92.52734375 130.03515625 92.52734375 130.03515625 93.52734375 128.03515625 C149.72040669 127.56900232 205.59562164 128.58612041 250.52734375 167.03515625 C251.33558594 167.7209375 252.14382813 168.40671875 252.9765625 169.11328125 C285.64128376 197.62440373 302.63924055 238.896827 306.30029297 281.59619141 C309.65430677 332.39687787 299.34127164 382.24577452 265.5234375 421.55859375 C241.08254525 449.27075638 207.77303772 464.944042 171.52734375 470.03515625 C170.62757813 470.16664063 169.7278125 470.298125 168.80078125 470.43359375 C143.80320564 473.36981692 118.23358518 470.29410488 94.52734375 462.03515625 C93.86734375 462.69515625 93.20734375 463.35515625 92.52734375 464.03515625 C92.04265625 463.70902344 91.55796875 463.38289063 91.05859375 463.046875 C87.58908406 460.78502157 84.34185502 458.85086175 80.40234375 457.53515625 C73.43820468 455.08682611 69.05330807 449.6043393 64.52734375 444.03515625 C64.54796875 444.88078125 64.56859375 445.72640625 64.58984375 446.59765625 C64.56921875 447.73203125 64.54859375 448.86640625 64.52734375 450.03515625 C64.52734375 451.14890625 64.52734375 452.26265625 64.52734375 453.41015625 C63.03657036 458.81420978 60.19534366 461.9551309 55.52734375 465.03515625 C50.83301499 466.19358458 46.28216573 466.15813984 41.46484375 466.09765625 C40.10537611 466.10305707 38.74591606 466.11083104 37.38647461 466.12084961 C34.54823678 466.13259096 31.71202411 466.11568639 28.87402344 466.078125 C25.2548048 466.03253111 21.64033089 466.05880608 18.02128601 466.10670471 C15.21721316 466.13576339 12.41424606 466.12634759 9.61013794 466.10568237 C7.63385902 466.09783111 5.65753525 466.12191723 3.68139648 466.14672852 C1.85910522 466.10890259 1.85910522 466.10890259 0 466.0703125 C-1.05952881 466.06394775 -2.11905762 466.05758301 -3.21069336 466.05102539 C-8.46648614 464.41422023 -11.59746177 461.74694499 -14.47265625 457.03515625 C-15.68079882 451.07094023 -15.55412239 445.18379676 -15.48852539 439.11914062 C-15.49774668 437.27000718 -15.51045476 435.4208884 -15.52634335 433.57180023 C-15.55973411 428.49701507 -15.54323755 423.42343369 -15.5184536 418.34864426 C-15.50035808 412.87337852 -15.52828916 407.39832027 -15.55029297 401.9230957 C-15.58587892 391.19975247 -15.57817686 380.476857 -15.55499184 369.75349617 C-15.53692971 361.03899585 -15.53447232 352.32462109 -15.54318237 343.61010742 C-15.54440824 342.37013929 -15.5456341 341.13017116 -15.54689711 339.85262823 C-15.5494549 337.33371032 -15.5520486 334.81479244 -15.55467784 332.2958746 C-15.57684346 309.34567227 -15.55385119 286.39566571 -15.51193707 263.44550931 C-15.47397256 242.4986983 -15.47736961 221.55227637 -15.515625 200.60546875 C-15.55847053 177.06669069 -15.57529665 153.5280839 -15.55072689 129.98926544 C-15.54817848 127.47957869 -15.54566351 124.9698919 -15.54318237 122.46020508 C-15.54194817 121.22536928 -15.54071396 119.99053348 -15.53944236 118.71827841 C-15.53253297 110.01354851 -15.54419832 101.30895658 -15.5630188 92.60424805 C-15.58544851 81.99698779 -15.57940105 71.39020117 -15.53677285 60.78299522 C-15.51573725 55.37017116 -15.50753127 49.95813695 -15.53396606 44.5453186 C-15.55779843 39.59046681 -15.54471983 34.63713718 -15.50214565 29.68242359 C-15.49320624 27.88981538 -15.4977635 26.09707868 -15.51715195 24.30455303 C-15.66754924 9.24512592 -15.66754924 9.24512592 -10.61303711 3.97889709 C-7.17440285 1.16540273 -4.52130412 0.02716014 0 0 Z " fill="#F15224" transform="translate(96.47265625,86.96484375)"/>
<path d="M0 0 C9.0079526 -0.03337257 18.01491385 -0.09337071 27.02244103 -0.18751103 C33.39823401 -0.25187251 39.77375589 -0.28553692 46.14986122 -0.29674953 C49.94316103 -0.30428441 53.73524498 -0.32525578 57.52818489 -0.37977695 C61.08620867 -0.43035283 64.64237607 -0.44278203 68.20070267 -0.42652607 C70.11718698 -0.42741271 72.03352662 -0.46791734 73.94955254 -0.50984097 C79.98133506 -0.44483713 83.79949447 -0.04484807 88.33778191 4.13836765 C91.36104578 7.73268583 92.57342012 10.3664243 92.60124016 15.15287876 C92.62645744 16.40778111 92.65167473 17.66268345 92.67765617 18.95561314 C92.66333441 20.30264153 92.64692588 21.64964911 92.62858391 22.99662876 C92.63398414 24.40093653 92.64175762 25.80523698 92.65177727 27.20951939 C92.66352116 30.1418897 92.64660462 33.07230035 92.60905266 36.00444126 C92.56345991 39.74467522 92.5897333 43.48031785 92.63763237 47.22038364 C92.66668331 50.11709157 92.65727847 53.01272857 92.63661003 55.90947056 C92.63131184 57.28724316 92.63768678 58.66511627 92.65644646 60.04277134 C92.67699317 61.97528554 92.64006842 63.90814543 92.60124016 65.84037876 C92.59487541 66.93543736 92.58851067 68.03049595 92.58195305 69.15873814 C90.98699707 74.39936252 88.20541409 77.5943147 83.56608391 80.49662876 C79.04417052 81.60811067 74.68567875 81.53805423 70.04777336 81.44902134 C68.69151 81.45172046 67.33524981 81.45798381 65.97901726 81.46751499 C63.06859258 81.4803328 60.1597615 81.46808563 57.24948883 81.43596935 C52.62631635 81.38505401 48.00420158 81.3903766 43.38082695 81.40255833 C36.04639959 81.4152087 28.71266818 81.38984372 21.37836474 81.3485381 C8.30240584 81.27584695 -4.77363657 81.26275755 -17.84977371 81.270693 C-22.42272119 81.27192165 -26.99513025 81.25497515 -31.56796318 81.2234363 C-63.13423482 79.7447965 -63.13423482 79.7447965 -91.43391609 90.93412876 C-95.08346679 95.61011559 -95.72726198 99.5538162 -95.74641609 105.43412876 C-95.77155281 107.21110142 -95.77155281 107.21110142 -95.79719734 109.02397251 C-95.24968144 114.25775359 -93.4558374 117.45037599 -89.80891609 121.18412876 C-83.84877518 125.78143101 -75.85572456 127.04935668 -68.57063484 128.12162876 C-67.29732559 128.30991245 -67.29732559 128.30991245 -65.99829292 128.50199986 C-54.14520675 130.10633329 -42.1884357 130.21438522 -30.24641609 130.49662876 C8.43889854 131.41789897 52.05187829 133.50537761 82.56608391 160.49662876 C83.1783886 161.01483189 83.79069328 161.53303501 84.42155266 162.06694126 C102.48308232 178.5165724 108.40074754 204.19047885 109.67985344 227.57670689 C110.76881996 255.60218502 104.4342094 283.05997193 86.03483391 304.83256626 C63.12158186 329.55857559 28.6766599 335.64627197 -3.43391609 337.49662876 C-8.38873977 337.65354697 -13.34162004 337.7029525 -18.29866219 337.73710728 C-19.72615489 337.74996351 -21.1536451 337.76309969 -22.58113289 337.77649021 C-35.47950655 337.89124143 -48.37857926 337.94883979 -61.27736664 337.99325752 C-70.78961508 338.02659051 -80.30092068 338.08645762 -89.81276453 338.18076855 C-96.53242386 338.24512732 -103.25182568 338.27879538 -109.97178137 338.29000705 C-113.97414625 338.29754858 -117.97536002 338.31857396 -121.97738457 338.37303448 C-125.73559711 338.42359798 -129.49205217 338.4360425 -133.25055122 338.41978359 C-135.27679828 338.42067092 -137.30290815 338.46119184 -139.328722 338.50309849 C-145.51383322 338.43997833 -149.58375485 338.15383657 -154.24974251 333.85488987 C-157.23971938 330.26263571 -158.44140482 327.60059264 -158.46907234 322.84037876 C-158.49428963 321.58547642 -158.51950691 320.33057407 -158.54548836 319.03764439 C-158.5311666 317.690616 -158.51475806 316.34360841 -158.49641609 314.99662876 C-158.50181633 313.59232099 -158.50958981 312.18802055 -158.51960945 310.78373814 C-158.53135335 307.85136782 -158.51443681 304.92095717 -158.47688484 301.98881626 C-158.43129209 298.2485823 -158.45756548 294.51293968 -158.50546455 290.77287388 C-158.53451549 287.87616595 -158.52511065 284.98052895 -158.50444221 282.08378696 C-158.49914402 280.70601436 -158.50551896 279.32814126 -158.52427864 277.95048618 C-158.54482535 276.01797199 -158.50790061 274.08511209 -158.46907234 272.15287876 C-158.4627076 271.05782017 -158.45634285 269.96276157 -158.44978523 268.83451939 C-156.85291706 263.58761198 -154.08772022 260.39210121 -149.43391609 257.49662876 C-144.83612069 256.38192813 -140.39688915 256.4554263 -135.68440437 256.54423618 C-134.30356948 256.54153727 -132.92273769 256.53527442 -131.54193306 256.52574253 C-128.57912828 256.51292476 -125.61788885 256.52517133 -122.65523338 256.55728817 C-117.95307742 256.60816616 -113.25196261 256.60288714 -108.54960823 256.5906992 C-101.0947386 256.57805043 -93.64055386 256.60341565 -86.18580616 256.64471942 C-72.8819107 256.71746711 -59.57792979 256.73051688 -46.2738589 256.72256452 C-41.61824986 256.72133261 -36.96316709 256.73835502 -32.30767 256.76982123 C-2.1792287 257.91976099 -2.1792287 257.91976099 25.06608391 247.05912876 C28.92359797 243.10517684 29.85538016 239.51200943 29.87858391 234.05912876 C29.75340611 228.23836132 28.62133568 224.61416089 24.50358391 220.37162876 C7.26999931 209.37146838 -15.5171482 211.19755796 -35.18928719 210.83305454 C-76.77722293 210.05031717 -121.72432307 205.79584597 -152.43391609 174.49662876 C-171.96273547 152.49827482 -176.99477223 122.93324711 -175.30940437 94.38774204 C-173.74617083 72.84708307 -167.25090769 51.64771731 -152.43391609 35.49662876 C-151.78165047 34.7528397 -151.12938484 34.00905064 -150.45735359 33.24272251 C-127.18741025 8.18613558 -91.00166424 2.00350659 -58.42470741 0.59982777 C-38.96982204 -0.07147444 -19.46504799 0.07084147 0 0 Z " fill="#F15224" transform="translate(1632.433916091919,214.5033712387085)"/>
<path d="M0 0 C1.23488159 -0.02521729 2.46976318 -0.05043457 3.74206543 -0.07641602 C5.05372681 -0.06022217 6.36538818 -0.04402832 7.71679688 -0.02734375 C9.09868458 -0.03274428 10.48056482 -0.04051799 11.86242676 -0.05053711 C14.74773063 -0.06227975 17.63104262 -0.0453691 20.51611328 -0.0078125 C24.19583914 0.03778081 27.87089824 0.01150664 31.55045319 -0.03639221 C34.40084349 -0.06544696 37.25014572 -0.05603673 40.10057068 -0.03536987 C42.11008779 -0.02751652 44.119649 -0.0516081 46.12902832 -0.07641602 C47.98135071 -0.03859009 47.98135071 -0.03859009 49.87109375 0 C50.94838745 0.00636475 52.02568115 0.01272949 53.13562012 0.01928711 C58.36836248 1.63016574 61.55883579 4.37786706 64.43554688 9.03515625 C65.56464876 13.7645028 65.50883075 18.42094232 65.43554688 23.25390625 C65.44316312 24.6836618 65.45429052 26.11340228 65.46864319 27.54310608 C65.49754446 31.40464681 65.47761866 35.26454444 65.44862747 39.12602615 C65.42667759 43.16866507 65.45004086 47.21104218 65.46850586 51.25366211 C65.49659284 58.89991857 65.4841912 66.54554657 65.45708179 74.19178486 C65.42818887 82.90047853 65.44467723 91.6089037 65.46489334 100.31760025 C65.50544753 118.22361878 65.48928563 136.12918484 65.43554688 154.03515625 C65.65488892 152.96031982 65.65488892 152.96031982 65.87866211 151.86376953 C66.54055051 148.62862914 67.20674332 145.39439006 67.87304688 142.16015625 C68.10314453 141.03222656 68.33324219 139.90429688 68.5703125 138.7421875 C68.79267578 137.66582031 69.01503906 136.58945313 69.24414062 135.48046875 C69.44837646 134.48547363 69.6526123 133.49047852 69.86303711 132.46533203 C70.43554688 130.03515625 70.43554688 130.03515625 71.43554688 128.03515625 C80.94551871 127.8493636 90.45486102 127.70743393 99.96625519 127.62065887 C104.38343138 127.57899906 108.79936134 127.52254544 113.21582031 127.43164062 C117.48235718 127.34437657 121.74769968 127.29681292 126.01506042 127.27613831 C127.63863419 127.26141593 129.26214638 127.23266421 130.88520813 127.1893158 C145.15235055 126.82360982 145.15235055 126.82360982 150.4296875 131.17773438 C154.96636966 136.90340123 154.59322727 143.54539146 154.49804688 150.53515625 C154.50344711 151.93946402 154.51122059 153.34376446 154.52124023 154.74804688 C154.53298413 157.68041719 154.51606759 160.61082784 154.47851562 163.54296875 C154.43292287 167.28320271 154.45919627 171.01884533 154.50709534 174.75891113 C154.53614627 177.65561906 154.52674144 180.55125606 154.506073 183.44799805 C154.5007748 184.82577065 154.50714974 186.20364376 154.52590942 187.58129883 C154.59370724 193.95800043 154.54381843 199.69721267 150.51171875 204.89257812 C144.01975675 210.24528417 135.08560667 209.01195533 127.15429688 208.81640625 C125.37213693 208.80146803 123.58994392 208.79008848 121.80773926 208.78210449 C117.1379782 208.75169391 112.47023739 208.67323022 107.80126953 208.58447266 C103.02859828 208.50233945 98.25559755 208.46603467 93.48242188 208.42578125 C84.1325804 208.34022217 74.78423223 208.20385261 65.43554688 208.03515625 C65.36513567 225.06530766 65.31240272 242.09541295 65.28011036 259.12567711 C65.26471087 267.03500643 65.24375559 274.94424476 65.20922852 282.85351562 C65.17911224 289.75573788 65.15992176 296.65789416 65.15328139 303.56018031 C65.14940631 307.20718925 65.14044828 310.85400963 65.1183567 314.50095749 C63.90527463 345.46502658 63.90527463 345.46502658 76.06445312 372.95703125 C89.91495202 385.93986548 113.15913602 385.06957539 130.93554688 385.10546875 C133.05778915 385.12037362 135.18001657 385.13670604 137.30224609 385.15332031 C138.73877547 385.15792352 140.17537741 385.15152462 141.61181641 385.13476562 C143.74201218 385.11368881 145.86804941 385.13704234 147.99804688 385.16796875 C149.85623047 385.16627686 149.85623047 385.16627686 151.75195312 385.16455078 C157.11606343 386.4323409 160.48807351 388.27262129 163.43554688 393.03515625 C164.53701879 398.52174072 164.36900724 403.9087702 164.21679688 409.46875 C164.20185952 411.07297434 164.19047955 412.67723539 164.18249512 414.2815094 C164.1520767 418.48613813 164.07360941 422.68852484 163.98486328 426.89227295 C163.90274516 431.18894117 163.8664287 435.4859749 163.82617188 439.78320312 C163.74059912 448.20154511 163.60422421 456.61807112 163.43554688 465.03515625 C54.01226268 466.36179688 54.01226268 466.36179688 18.43554688 434.03515625 C17.53191406 433.22433594 16.62828125 432.41351562 15.69726562 431.578125 C-3.28286 413.64807548 -13.80681572 386.95788197 -14.66548455 360.97839642 C-14.71405113 357.202096 -14.73171375 353.4263223 -14.73854065 349.64978027 C-14.74471106 348.18427153 -14.7512879 346.71876445 -14.75823444 345.25325918 C-14.7759489 341.23922749 -14.78744875 337.22519889 -14.79779112 333.2111423 C-14.80745877 329.76526039 -14.82076151 326.31939621 -14.83406008 322.87352669 C-14.88151711 310.5420134 -14.91427253 298.21047488 -14.94335938 285.87890625 C-14.94566696 284.90562181 -14.94797454 283.93233737 -14.95035204 282.92955947 C-14.99578545 263.59767035 -15.03427875 244.26576971 -15.06108189 224.93384552 C-15.06707069 220.68880702 -15.07315642 216.44376868 -15.0793457 212.19873047 C-15.08087869 211.14368472 -15.08241167 210.08863897 -15.0839911 209.00162214 C-15.10972927 191.89374906 -15.16664184 174.78612142 -15.235811 157.67837471 C-15.30626123 140.10865397 -15.34651182 122.53906035 -15.35783142 104.96920061 C-15.36499263 95.10628664 -15.38576442 85.24380036 -15.44085884 75.38102722 C-15.48772191 66.98615809 -15.50759048 58.59178114 -15.49197734 50.19678581 C-15.48486357 45.91391894 -15.49074108 41.63210638 -15.53155518 37.34940529 C-15.56863902 33.42706183 -15.56865842 29.50651193 -15.53943156 25.58411819 C-15.53536193 24.16696801 -15.54477893 22.74969995 -15.56919736 21.33275431 C-15.68166632 14.38885186 -15.69244335 9.3797244 -10.71015072 4.19956207 C-7.23025558 1.19283677 -4.69291584 0.02772616 0 0 Z " fill="#F15224" transform="translate(462.564453125,86.96484375)"/>
<path d="M0 0 C1.11973206 -0.01401855 2.23946411 -0.02803711 3.39312744 -0.04248047 C7.07821149 -0.07756509 10.76019968 -0.05442839 14.4453125 -0.02734375 C17.01546821 -0.03273591 19.58561994 -0.0405027 22.15576172 -0.05053711 C27.53591639 -0.06231683 32.91491714 -0.04600645 38.29492188 -0.0078125 C44.49861437 0.03572284 50.70020327 0.0216174 56.90384483 -0.02242374 C62.89275316 -0.06322456 68.88063955 -0.05875247 74.86968994 -0.03536987 C77.40855201 -0.03004336 79.947468 -0.03654677 82.48626709 -0.0552063 C86.03915398 -0.07559013 89.58803562 -0.04447686 93.140625 0 C94.1839801 -0.01619385 95.22733521 -0.0323877 96.30230713 -0.04907227 C101.6119676 0.07371726 104.91739556 0.72994173 108.84218597 4.44770813 C113.34620765 9.24098364 113.68972448 13.06443353 113.53234863 19.45019531 C113.53918403 20.47383525 113.54601943 21.49747519 113.55306196 22.55213451 C113.56620103 25.96950338 113.52231033 29.38370384 113.47851562 32.80078125 C113.47625821 35.25513128 113.47752731 37.70948672 113.48205566 40.16383362 C113.48387519 45.44122775 113.46124396 50.71764269 113.41615295 55.99478149 C113.3510039 63.62436161 113.33028815 71.25355958 113.32024902 78.88338768 C113.30276048 91.26345896 113.24957743 103.6431074 113.17382812 116.02294922 C113.10034239 128.04538871 113.04374148 140.06771315 113.00976562 152.09033203 C113.00661294 153.2028222 113.00661294 153.2028222 113.00339657 154.33778691 C112.99295591 158.05865486 112.98284633 161.77952361 112.97290134 165.50039291 C112.89003147 196.34562145 112.74858627 227.1903245 112.5703125 258.03515625 C113.26664795 258.01739136 113.9629834 257.99962646 114.68041992 257.98132324 C121.27043819 257.82045353 127.85990205 257.69894379 134.45144653 257.62065887 C137.83974536 257.57905493 141.2264108 257.52271685 144.61376953 257.43164062 C148.51638379 257.33425429 152.41670214 257.28914735 156.3203125 257.25390625 C157.52582764 257.21261597 158.73134277 257.17132568 159.97338867 257.12878418 C166.13430557 257.12552029 169.79224013 257.49213581 174.33536625 261.8725729 C177.45452062 265.4253617 178.57512368 267.97523698 178.58959961 272.79907227 C178.6115892 274.07722305 178.6335788 275.35537384 178.65623474 276.67225647 C178.63859597 278.0445507 178.61902282 279.41682125 178.59765625 280.7890625 C178.6005112 282.21818236 178.60589099 283.64729918 178.61366272 285.07640076 C178.62091342 288.06005737 178.59999615 291.04178268 178.55834961 294.02514648 C178.50711754 297.83465338 178.52306741 301.64033409 178.55972958 305.44989109 C178.58121757 308.39713357 178.56870355 311.34348937 178.54596138 314.29069328 C178.53881842 315.69439153 178.54164059 317.09817959 178.55494499 318.50183296 C178.56812681 320.46816819 178.53094379 322.43464215 178.49194336 324.40063477 C178.47906532 326.07320091 178.47906532 326.07320091 178.46592712 327.77955627 C177.38633582 331.70391986 176.24903184 333.91252439 173.22827816 336.64877415 C166.9333989 339.93215289 159.02701762 339.00861545 152.09399414 338.95678711 C150.19461694 338.96791589 148.29525512 338.98200469 146.3959198 338.99882507 C141.24690118 339.03496688 136.09884225 339.0267635 130.94976354 339.00836635 C126.64800236 338.99718687 122.34641509 339.00810736 118.04466242 339.0191384 C107.89492585 339.04499156 97.74565232 339.03542868 87.59594727 339.00268555 C77.13173984 338.96944103 66.66866591 338.9905593 56.20454508 339.03938764 C47.21317978 339.07972053 38.22216261 339.08888583 29.23072141 339.07255656 C23.86365428 339.06295935 18.49720799 339.06450706 13.13020515 339.09495354 C8.08257824 339.12201286 3.0365113 339.10995612 -2.01099968 339.06807137 C-3.86045863 339.0591113 -5.71004171 339.06369597 -7.55942154 339.08300781 C-23.25271576 339.23314839 -23.25271576 339.23314839 -28.52784729 334.38746643 C-31.30525418 330.81324639 -32.43815106 327.97139985 -32.46484375 323.37890625 C-32.50266968 321.49655273 -32.50266968 321.49655273 -32.54125977 319.57617188 C-32.52693801 318.22914348 -32.51052947 316.8821359 -32.4921875 315.53515625 C-32.49758774 314.13084848 -32.50536121 312.72654804 -32.51538086 311.32226562 C-32.52712476 308.38989531 -32.51020822 305.45948466 -32.47265625 302.52734375 C-32.4270635 298.78710979 -32.45333689 295.05146717 -32.50123596 291.31140137 C-32.5302869 288.41469344 -32.52088206 285.51905644 -32.50021362 282.62231445 C-32.49491543 281.24454185 -32.50129037 279.86666874 -32.52005005 278.48901367 C-32.54059676 276.55649948 -32.50367201 274.62363958 -32.46484375 272.69140625 C-32.458479 271.59634766 -32.45211426 270.50128906 -32.44555664 269.37304688 C-31.4296875 266.03515625 -31.4296875 266.03515625 -23.4296875 258.03515625 C-4.2896875 258.03515625 14.8503125 258.03515625 34.5703125 258.03515625 C34.5703125 199.62515625 34.5703125 141.21515625 34.5703125 81.03515625 C19.3903125 81.03515625 4.2103125 81.03515625 -11.4296875 81.03515625 C-20.43198159 72.03286216 -20.43198159 72.03286216 -20.46484375 66.37890625 C-20.49006104 65.12400391 -20.51527832 63.86910156 -20.54125977 62.57617188 C-20.52693801 61.22914348 -20.51052947 59.8821359 -20.4921875 58.53515625 C-20.49758774 57.13084848 -20.50536121 55.72654804 -20.51538086 54.32226562 C-20.52712476 51.38989531 -20.51020822 48.45948466 -20.47265625 45.52734375 C-20.4270635 41.78710979 -20.45333689 38.05146717 -20.50123596 34.31140137 C-20.5302869 31.41469344 -20.52088206 28.51905644 -20.50021362 25.62231445 C-20.49491543 24.24454185 -20.50129037 22.86666874 -20.52005005 21.48901367 C-20.54059676 19.55649948 -20.50367201 17.62363958 -20.46484375 15.69140625 C-20.458479 14.59634766 -20.45211426 13.50128906 -20.44555664 12.37304688 C-17.33600396 2.15583844 -9.75831165 -0.15145813 0 0 Z " fill="#F15224" transform="translate(894.4296875,213.96484375)"/>
<path d="M0 0 C4.67472625 0.68715352 6.56519569 2.49551246 9.77908325 5.85797119 C13.17488771 11.07849527 12.65244021 16.98441083 12.5703125 23.015625 C12.57571274 24.41993277 12.58348621 25.82423321 12.59350586 27.22851562 C12.60524976 30.16088594 12.58833322 33.09129659 12.55078125 36.0234375 C12.5051885 39.76367146 12.53146189 43.49931408 12.57936096 47.23937988 C12.6084119 50.13608781 12.59900706 53.03172481 12.57833862 55.9284668 C12.57304043 57.3062394 12.57941537 58.68411251 12.59817505 60.06176758 C12.67138641 66.94763804 12.6512577 72.1659325 7.76733398 77.35449219 C3.14241595 81.47552042 -1.44071569 81.68398225 -7.4296875 81.765625 C-9.47706525 81.86942419 -11.52397928 81.98278923 -13.5703125 82.10546875 C-14.57384766 82.16331543 -15.57738281 82.22116211 -16.61132812 82.28076172 C-35.15774105 83.79276589 -53.64141344 91.57561476 -66.49609375 105.140625 C-82.43021514 124.09942305 -84.67365214 149.58919536 -84.57055664 173.29125977 C-84.56703576 174.98401792 -84.5640702 176.67677731 -84.56161499 178.36953735 C-84.55596469 182.00022194 -84.54796428 185.63089128 -84.53859138 189.26156807 C-84.52536014 195.00674959 -84.527159 200.75186449 -84.53282166 206.49705505 C-84.53374174 207.46872307 -84.53466182 208.44039108 -84.53560978 209.44150358 C-84.53857977 212.43170567 -84.54174418 215.42190751 -84.54492188 218.41210938 C-84.55771522 230.77250411 -84.55962604 243.13258066 -84.51635742 255.49291992 C-84.48484921 264.5241857 -84.4815573 273.55496961 -84.51111692 282.58624882 C-84.52565085 287.35983979 -84.52588783 292.132466 -84.49171638 296.90597725 C-84.45986032 301.39384048 -84.46537847 305.88012039 -84.49921799 310.36795425 C-84.50502371 312.01103276 -84.49724949 313.65422618 -84.47462654 315.29715919 C-84.29545088 329.22721977 -84.29545088 329.22721977 -89.14341736 334.49131775 C-92.69427808 337.3361603 -95.43036701 338.52344882 -100.05664062 338.55078125 C-101.29152222 338.57599854 -102.52640381 338.60121582 -103.79870605 338.62719727 C-105.11036743 338.61100342 -106.42202881 338.59480957 -107.7734375 338.578125 C-109.1553252 338.58352553 -110.53720545 338.59129924 -111.91906738 338.60131836 C-114.80437125 338.613061 -117.68768325 338.59615035 -120.57275391 338.55859375 C-124.25247977 338.51300044 -127.92753886 338.53927461 -131.60709381 338.58717346 C-134.45748411 338.61622821 -137.30678635 338.60681798 -140.1572113 338.58615112 C-142.16672842 338.57829777 -144.17628962 338.60238935 -146.18566895 338.62719727 C-148.03799133 338.58937134 -148.03799133 338.58937134 -149.92773438 338.55078125 C-151.54367493 338.54123413 -151.54367493 338.54123413 -153.19226074 338.53149414 C-158.52561346 336.88964302 -161.69916111 334.38381317 -164.4921875 329.515625 C-165.65897535 323.69168289 -165.54671585 317.97238282 -165.46386719 312.0534668 C-165.46816355 310.2734465 -165.47592585 308.49343173 -165.48687744 306.71343994 C-165.50623146 301.88731966 -165.47568119 297.06268457 -165.43506527 292.23674369 C-165.39976589 287.15783286 -165.40697718 282.07896274 -165.4085083 276.99995422 C-165.40476262 268.45129839 -165.3700789 259.90321041 -165.31542969 251.35473633 C-165.25291033 241.54041249 -165.23142435 231.72671415 -165.2343719 221.9122054 C-165.23710143 211.39630534 -165.20914249 200.88063951 -165.17258549 190.36481118 C-165.16415372 187.37221805 -165.16123345 184.37966403 -165.15962982 181.38706017 C-165.10481102 128.58721819 -157.67603329 81.25332811 -118.91967773 42.50610352 C-107.35482311 31.30169109 -94.16868983 23.01744936 -79.4921875 16.515625 C-78.56889648 16.10256104 -78.56889648 16.10256104 -77.62695312 15.68115234 C-52.27082321 4.50532356 -26.81936602 3.95990639 0 0 Z " fill="#F15224" transform="translate(828.4921875,214.484375)"/>
<path d="M0 0 C1.42672785 -0.00539996 2.85344849 -0.0131732 4.28015137 -0.02319336 C7.25958851 -0.03493847 10.23709717 -0.01801623 13.21630859 0.01953125 C17.01705147 0.06512347 20.81327606 0.03885083 24.61385345 -0.00904846 C27.55687918 -0.03809571 30.49885058 -0.0286961 33.44190979 -0.00802612 C34.842011 -0.00272695 36.24221106 -0.00910637 37.64219666 -0.02786255 C44.26612236 -0.09715204 49.90163812 -0.10206076 55.13476562 4.31835938 C59.56256106 9.69388143 59.43581533 15.32032889 59.34375 22.03125 C59.35140381 23.26613159 59.35905762 24.50101318 59.36694336 25.77331543 C59.37236976 28.37544022 59.35772948 30.97767519 59.32421875 33.57958984 C59.28136717 37.55163887 59.32384584 41.5164559 59.375 45.48828125 C59.36971322 48.02345339 59.35946275 50.55862104 59.34375 53.09375 C59.35994385 54.2741687 59.3761377 55.4545874 59.39282227 56.67077637 C59.26599019 62.27752423 58.77913661 66.38481349 55.15063477 70.80883789 C49.34154413 75.71537823 42.55024448 75.20081388 35.30859375 75.08984375 C33.85705375 75.09269856 32.40551675 75.09807812 30.95399475 75.10585022 C27.92327132 75.11310166 24.89444892 75.09217884 21.86401367 75.05053711 C17.99399226 74.9993062 14.1277373 75.01525439 10.25766659 75.05191708 C7.26410567 75.07340281 4.2714179 75.06089245 1.27789497 75.03814888 C-0.1481322 75.03100478 -1.57424777 75.03383023 -3.00023079 75.04713249 C-15.43758479 75.12918972 -15.43758479 75.12918972 -20.0859375 71.3203125 C-24.14708305 66.21443893 -23.74069144 60.22168648 -23.68359375 53.97265625 C-23.69266251 52.71416367 -23.70173126 51.45567108 -23.71107483 50.15904236 C-23.72020551 47.50215859 -23.71503744 44.84988398 -23.6862793 42.19360352 C-23.65201565 38.80861919 -23.68532336 35.42825103 -23.73848629 32.04364872 C-23.77939584 28.79072348 -23.7597372 25.53824002 -23.74609375 22.28515625 C-23.76542465 21.07972672 -23.78475555 19.87429718 -23.80467224 18.63233948 C-23.69500248 12.95670968 -23.2606569 8.77803749 -19.57446289 4.30249023 C-13.82214444 -0.53623806 -7.16834311 -0.09603723 0 0 Z " fill="#F15224" transform="translate(950.71875,125.9375)"/>
<path d="M0 0 C-0.44990994 4.67906334 -0.99971015 7.39965218 -4 11 C-4.71162443 12.64797236 -5.39031953 14.31165408 -6 16 C-6.66 16 -7.32 16 -8 16 C-8.185625 17.11375 -8.185625 17.11375 -8.375 18.25 C-9 21 -9 21 -10.125 23.0625 C-11.15504645 24.94065178 -11.15504645 24.94065178 -10.87890625 26.93359375 C-9.59193669 29.95940217 -7.7161482 30.52707938 -4.8125 32 C0.39553912 34.8871328 4.86429141 38.1158628 9.375 42 C9.94500732 42.48597656 10.51501465 42.97195313 11.10229492 43.47265625 C26.1497644 56.66254915 33.71390788 74.34996544 36 94 C36.20941693 98.42225822 36.19292833 102.82420832 36.125 107.25 C36.11597656 108.38824219 36.10695313 109.52648437 36.09765625 110.69921875 C36.0744028 113.46637881 36.04172868 116.2330676 36 119 C36.66 119.33 37.32 119.66 38 120 C37.34 120.66 36.68 121.32 36 122 C35.5153125 121.67386719 35.030625 121.34773437 34.53125 121.01171875 C31.06174031 118.74986532 27.81451127 116.8157055 23.875 115.5 C19.87148917 114.08745524 17.02397082 111.93823969 14 109 C13.37609375 108.50371094 12.7521875 108.00742187 12.109375 107.49609375 C7.93510148 103.70361354 6.6462113 100.65317785 6.31665039 94.97583008 C6.24963785 92.73790595 6.20095592 90.50019062 6.15625 88.26171875 C5.81875578 73.65535836 -0.70382145 61.97962938 -11 52 C-16.29939023 46.86618942 -16.29939023 46.86618942 -23 45 C-24.65 48.63 -26.3 52.26 -28 56 C-28.66 56 -29.32 56 -30 56 C-30.226875 56.804375 -30.45375 57.60875 -30.6875 58.4375 C-32.33631588 62.91285739 -34.60544412 66.88721318 -37 71 C-39.875 70.6875 -39.875 70.6875 -43 70 C-46.68961884 64.46557174 -45.13719356 58.33791783 -43.921875 52.10424805 C-43.64095094 50.70304176 -43.35840225 49.30216019 -43.07421875 47.90161133 C-42.06776944 42.8034375 -41.72277006 38.17495891 -42 33 C-44.64 32.01 -47.28 31.02 -50 30 C-50 29.34 -50 28.68 -50 28 C-50.70125 28 -51.4025 28 -52.125 28 C-56.64202235 26.42886179 -58.93274104 23.23678514 -61 19 C-61.43821463 15.31114853 -60.69434551 12.30700332 -58.9375 9 C-55.70900519 7.3336801 -52.58865469 7.82350879 -49 8 C-49 8.66 -49 9.32 -49 10 C-47.7625 10.0928125 -47.7625 10.0928125 -46.5 10.1875 C-42.60687104 11.09126208 -40.3031657 12.60413022 -37.125 14.94140625 C-34.08444884 16.45609258 -32.37151833 16.54059841 -29 16 C-26.38298708 14.36371361 -24.19078068 12.34948146 -21.9375 10.25 C-20.73879962 9.17129869 -19.53959013 8.09316282 -18.33984375 7.015625 C-17.77120605 6.49935547 -17.20256836 5.98308594 -16.61669922 5.45117188 C-10.72889939 0.16620024 -7.95456783 -1.35077567 0 0 Z " fill="#FEFAF9" transform="translate(153,429)"/>
<path d="M0 0 C1.49065753 4.67976121 0.29030339 8.177112 -1.3125 12.625 C-1.53873047 13.29273438 -1.76496094 13.96046875 -1.99804688 14.6484375 C-3.07275554 17.74558063 -4.17180372 20.25770559 -6 23 C-6.07905064 25.33199388 -6.08798769 27.66832622 -6 30 C-4.96359375 30.32613281 -3.9271875 30.65226562 -2.859375 30.98828125 C-1.4894532 31.42928347 -0.11966867 31.87071223 1.25 32.3125 C1.93191406 32.52583984 2.61382813 32.73917969 3.31640625 32.95898438 C7.08586354 34.18497291 9.93837218 35.50873967 13 38 C14.63784195 38.82849101 16.28453744 39.63960378 17.9375 40.4375 C22.84268781 43.07115789 26.80779174 46.18714142 30.875 49.9375 C31.67732056 50.67214478 31.67732056 50.67214478 32.49584961 51.42163086 C36.22641925 54.96523381 39.09551205 58.75537111 42 63 C42.86625 64.051875 42.86625 64.051875 43.75 65.125 C45.25494367 67.38241551 45.53092652 69.35060351 46 72 C45.0821875 72.42410156 44.164375 72.84820312 43.21875 73.28515625 C35.94266982 76.7329202 29.7044404 80.17155002 24 86 C20.39728584 83.59819056 20.53900053 82.31068272 19.6484375 78.28125 C15.53582512 63.81278236 3.27744159 55.82810224 -9.08984375 48.84765625 C-11.10872316 47.79719095 -11.10872316 47.79719095 -14 48 C-14.23187012 48.70084717 -14.46374023 49.40169434 -14.70263672 50.1237793 C-15.75850109 53.3122153 -16.81672644 56.49986286 -17.875 59.6875 C-18.23980469 60.79029297 -18.60460938 61.89308594 -18.98046875 63.02929688 C-19.33496094 64.09599609 -19.68945312 65.16269531 -20.0546875 66.26171875 C-20.37937012 67.24100342 -20.70405273 68.22028809 -21.03857422 69.22924805 C-21.94987046 71.85553069 -22.9451193 74.42847176 -24 77 C-29.37432812 76.40285243 -29.37432812 76.40285243 -31.66723633 74.92651367 C-33.70089821 71.98684964 -33.48046362 68.94326653 -33.51171875 65.48828125 C-33.52966995 64.76005661 -33.54762115 64.03183197 -33.56611633 63.28153992 C-33.62024213 60.95858529 -33.6541208 58.63583634 -33.6875 56.3125 C-33.72067125 54.73629949 -33.75516073 53.16012612 -33.79101562 51.58398438 C-33.8759693 47.72280464 -33.94276876 43.86168613 -34 40 C-35.39109985 40.03407959 -35.39109985 40.03407959 -36.81030273 40.06884766 C-43.05880532 39.93397757 -49.04297089 36.33256333 -53.88671875 32.51171875 C-56.32631953 29.91833225 -57.02250979 27.8694432 -57.625 24.375 C-57 21 -57 21 -54.9375 18.5625 C-50.10877688 15.99403026 -46.95105483 16.43490047 -41.87109375 17.90625 C-39.63323662 18.61910551 -37.40332242 19.35755479 -35.18359375 20.125 C-31.83565268 21.04517031 -29.44342556 21.48189244 -26 21 C-23.57586924 19.16017136 -23.57586924 19.16017136 -21.5625 16.5625 C-20.79808594 15.65628906 -20.03367187 14.75007812 -19.24609375 13.81640625 C-16.61611686 10.51864392 -14.01543367 7.20445134 -11.5078125 3.8125 C-8.03245641 -0.36513011 -5.13804603 -0.19388853 0 0 Z " fill="#FEFAF9" transform="translate(1175,241)"/>
</svg>
